<svg id="TEXT" xmlns="http://www.w3.org/2000/svg" viewBox="0 0 60 59.98"><defs><style>.cls-1{fill:#fff;}</style></defs><g id="xxtpLs"><path class="cls-1" d="M0,28.61Q2,23.8,4,19a5.16,5.16,0,0,1,5.2-3.51H25.82a1,1,0,0,1,1.07,1,1,1,0,0,1-1,1,15.88,15.88,0,0,1-1.69,0c-.5,0-.72.1-.77.66-.09.87-.09,1.75-.14,2.62-.18,2.76-.3,5.53-.4,8.29a2.5,2.5,0,0,0,1.77,2.54,2.45,2.45,0,0,0,3.1-2.3c.06-1.48-.12-2.95-.18-4.43,0-.57-.06-1.13-.06-1.7A1,1,0,0,1,29.42,23a4,4,0,0,1,.09.69c.09,1.79.17,3.58.26,5.37a2.63,2.63,0,0,0,2.49,2.68,1,1,0,0,1,1,1.07,1,1,0,0,1-1.21.91,4.29,4.29,0,0,1-2.91-1.32c-.3-.3-.46-.28-.75,0a4.25,4.25,0,0,1-6.21,0c-.27-.26-.41-.29-.7,0a4.32,4.32,0,0,1-6.32,0c-.26-.25-.39-.25-.66,0a4.24,4.24,0,0,1-6.29,0c-.33-.32-.47-.15-.7.07A4.39,4.39,0,0,1,1,32.1a7.47,7.47,0,0,1-1-1.85Zm8.92.58a2.53,2.53,0,0,0,2.33,2.53,2.52,2.52,0,0,0,2.52-2.16c.13-1.08.36-2.15.55-3.22.49-2.75,1-5.49,1.49-8.23.1-.55.07-.6-.51-.6H13.08c-.82,0-.82,0-1,.78L9,28.72A3.63,3.63,0,0,0,8.92,29.19ZM19.66,17.51h-.47c-1.47,0-1.2-.13-1.45,1.21q-.94,5.09-1.85,10.17a2.48,2.48,0,0,0,2.95,2.76,2.55,2.55,0,0,0,1.95-2.47c.07-.9.09-1.79.14-2.69.11-1.83.22-3.65.32-5.48.06-1,.09-2,.15-3,0-.38-.14-.53-.51-.52S20.07,17.51,19.66,17.51ZM9,17.5A3,3,0,0,0,5.9,19.55c-1.3,3.1-2.56,6.21-3.83,9.31a1.3,1.3,0,0,0-.09.85,2.56,2.56,0,0,0,2.37,2,2.48,2.48,0,0,0,2.4-1.95c.12-.47.15-1,.28-1.43.94-3.26,1.9-6.51,2.85-9.77C10.23,17.35,10.25,17.52,9,17.5Z"/><path class="cls-1" d="M4.92,60a1.42,1.42,0,0,1-.6-1.26q0-11.51,0-23a2.3,2.3,0,0,1,.07-.58.93.93,0,0,1,1-.73.91.91,0,0,1,.91.76,3.17,3.17,0,0,1,0,.76V57.22c0,.85,0,.85.82.85H43.39c.83,0,.83,0,.83-.84V45.82a4.56,4.56,0,0,1,0-.64,1,1,0,0,1,1.92-.2,2.23,2.23,0,0,1,.09.63v13a1.45,1.45,0,0,1-.6,1.32Z"/><path class="cls-1" d="M45.08,0A14.77,14.77,0,0,1,57.89,22.38q-5.78,9.78-11.56,19.54c-.06.1-.11.2-.18.3a1,1,0,0,1-1.9,0c-.54-.89-1.06-1.78-1.58-2.67q-5.1-8.64-10.21-17.28A14.81,14.81,0,0,1,42.87.16,10.76,10.76,0,0,1,45.08,0ZM32.45,14.77A11.75,11.75,0,0,0,34,20.94c3.61,6.16,7.26,12.29,10.89,18.44.28.47.33.47.6,0L56.22,21.26a12.56,12.56,0,0,0,1.67-8.1,12.77,12.77,0,0,0-25.44,1.61Z"/><path class="cls-1" d="M24.73,50.32v6a1.27,1.27,0,0,1-.13.74,1,1,0,0,1-.92.51.93.93,0,0,1-.86-.68,3.35,3.35,0,0,1-.11-1.05c0-3.7,0-7.41,0-11.12a4.59,4.59,0,0,0-3.81-4.57,4.51,4.51,0,0,0-5.18,4.22c0,3.44,0,6.87,0,10.3,0,.53,0,1.06,0,1.58a2.74,2.74,0,0,1-.09.64.91.91,0,0,1-.92.68,1,1,0,0,1-.94-.67,1.79,1.79,0,0,1-.08-.69c0-3.82,0-7.65,0-11.47a6.53,6.53,0,0,1,13.05-.36c0,2,0,3.94,0,5.91Z"/><path class="cls-1" d="M35,51.1H30.18c-1.05,0-1.41-.36-1.41-1.41V42c0-1,.36-1.37,1.37-1.38h9.72c1.07,0,1.38.33,1.38,1.41v7.6c0,1.14-.31,1.44-1.47,1.45Zm0-2c1.19,0,2.38,0,3.57,0,.5,0,.7-.14.69-.66,0-1.7,0-3.4,0-5.09,0-.53-.2-.67-.69-.66-2.36,0-4.72,0-7.08,0-.47,0-.66.14-.66.63,0,1.72,0,3.43,0,5.15,0,.5.19.63.66.63C32.62,49.05,33.79,49.07,35,49.07Z"/><path class="cls-1" d="M35,52.23h6.2a2.76,2.76,0,0,1,.64,0A1,1,0,0,1,42,54.15a1.93,1.93,0,0,1-.75.11H28.51a1.08,1.08,0,0,1-1.12-1,1,1,0,0,1,1.15-1Z"/><path class="cls-1" d="M19.8,51.62a.94.94,0,0,1-1-1,1,1,0,0,1,1-1,1,1,0,0,1,1,1A.94.94,0,0,1,19.8,51.62Z"/><path class="cls-1" d="M54.22,14.74a9,9,0,1,1-9-9A9,9,0,0,1,54.22,14.74Zm-2,.08a7,7,0,1,0-7,6.93A6.94,6.94,0,0,0,52.19,14.82Z"/><path class="cls-1" d="M45.24,10.43a4.35,4.35,0,0,1,0,8.7,4.45,4.45,0,0,1-4.37-4.38A4.36,4.36,0,0,1,45.24,10.43Zm0,2a2.28,2.28,0,0,0-2.35,2.31,2.34,2.34,0,0,0,2.29,2.33,2.28,2.28,0,0,0,2.36-2.3A2.22,2.22,0,0,0,45.22,12.46Z"/></g></svg>